<svg xmlns="http://www.w3.org/2000/svg" xmlns:xlink="http://www.w3.org/1999/xlink" width="500" zoomAndPan="magnify" viewBox="0 0 375 374.999991" height="500" preserveAspectRatio="xMidYMid meet" version="1.0"><defs><g/></defs><g fill="#0b132b" fill-opacity="1"><g transform="translate(38.132814, 206.211373)"><g><path d="M 9.832031 -5.476562 C 13.621094 -3.089844 17.90625 -4.214844 20.222656 -8.003906 C 20.292969 -8.074219 20.363281 -8.074219 20.363281 -8.144531 C 20.785156 -9.550781 21.695312 -9.898438 23.03125 -9.691406 C 23.3125 -9.621094 23.523438 -9.691406 23.804688 -9.691406 C 25.347656 -9.550781 26.890625 -9.761719 28.4375 -10.109375 C 29.351562 -10.390625 30.332031 -10.671875 31.246094 -10.882812 C 33.421875 -11.515625 35.457031 -12.5 37.355469 -13.761719 C 40.792969 -16.078125 43.605469 -19.097656 46.273438 -22.1875 C 46.34375 -22.328125 46.480469 -22.46875 46.550781 -22.679688 C 46.621094 -22.960938 46.550781 -23.171875 46.34375 -23.382812 C 46.203125 -23.59375 45.921875 -23.664062 45.640625 -23.59375 C 45.359375 -23.453125 45.078125 -23.242188 44.867188 -23.03125 L 43.183594 -21.132812 C 41.144531 -18.816406 38.828125 -16.710938 36.230469 -14.957031 C 34.757812 -13.972656 33.210938 -13.199219 31.527344 -12.707031 C 30.261719 -12.289062 29.070312 -11.9375 27.804688 -11.65625 C 26.121094 -11.164062 24.433594 -11.09375 22.75 -11.234375 C 22.046875 -11.304688 21.835938 -11.515625 21.976562 -12.289062 L 22.398438 -14.957031 C 22.609375 -16.78125 22.328125 -18.535156 21.625 -20.292969 C 20.925781 -22.117188 19.660156 -23.453125 17.765625 -24.152344 C 15.867188 -24.855469 13.691406 -24.292969 12.5 -22.75 C 11.164062 -21.132812 10.601562 -19.238281 11.164062 -17.132812 C 11.726562 -14.957031 12.988281 -13.269531 14.746094 -11.9375 C 15.9375 -11.023438 17.273438 -10.390625 18.746094 -10.039062 C 19.097656 -9.898438 19.238281 -9.550781 19.027344 -9.269531 C 18.046875 -7.230469 16.5 -5.96875 14.253906 -5.898438 C 12.917969 -5.828125 11.65625 -6.179688 10.53125 -6.882812 C 8.285156 -8.425781 6.460938 -10.25 5.335938 -12.777344 C 4.351562 -15.027344 3.582031 -17.273438 2.878906 -19.589844 C 2.597656 -20.644531 2.597656 -20.714844 3.582031 -21.273438 C 5.898438 -22.820312 8.003906 -24.644531 10.039062 -26.613281 C 12.707031 -29.28125 15.027344 -32.367188 17.273438 -35.457031 C 20.714844 -40.023438 22.539062 -45.21875 23.242188 -50.90625 C 23.523438 -53.574219 23.3125 -56.171875 22.257812 -58.699219 C 21.132812 -61.085938 19.519531 -62.914062 17.132812 -64.105469 C 14.253906 -65.441406 11.515625 -65.230469 8.847656 -63.542969 C 7.371094 -62.632812 6.179688 -61.4375 5.265625 -60.035156 C 2.949219 -56.664062 1.054688 -53.011719 0.0703125 -49.011719 C -1.613281 -42.691406 -1.753906 -36.371094 -0.984375 -29.910156 C -0.5625 -26.820312 0.421875 -23.875 0.703125 -20.785156 C 0.703125 -20.574219 0.773438 -20.363281 0.914062 -20.222656 C 1.265625 -19.660156 1.40625 -19.027344 1.542969 -18.394531 C 2.246094 -16.289062 2.949219 -14.113281 3.933594 -12.007812 C 5.195312 -9.199219 7.230469 -7.089844 9.832031 -5.476562 Z M 3.300781 -22.820312 C 2.457031 -22.257812 2.175781 -22.398438 1.964844 -23.3125 C 1.683594 -24.222656 1.472656 -25.207031 1.335938 -26.121094 C 0.5625 -29.699219 0.28125 -33.28125 0.140625 -36.722656 C 0.210938 -40.234375 0.492188 -43.535156 1.125 -46.761719 C 2.105469 -51.328125 4.074219 -55.46875 6.671875 -59.332031 C 7.230469 -60.105469 7.933594 -60.804688 8.636719 -61.4375 C 12.429688 -64.738281 16.78125 -63.542969 19.378906 -60.246094 C 21.34375 -57.855469 21.976562 -55.046875 21.695312 -52.03125 C 21.203125 -46.34375 19.378906 -41.074219 16.007812 -36.371094 C 13.269531 -32.648438 10.53125 -29 7.089844 -25.839844 C 5.898438 -24.785156 4.632812 -23.734375 3.300781 -22.820312 Z M 19.238281 -11.585938 C 16.21875 -12.007812 12.988281 -15.097656 12.570312 -18.117188 C 12.429688 -19.519531 12.847656 -20.855469 13.832031 -21.835938 C 14.957031 -23.03125 16.640625 -23.171875 18.117188 -22.1875 C 19.589844 -21.273438 20.292969 -19.800781 20.644531 -18.1875 C 20.785156 -17.414062 20.785156 -16.5 20.785156 -16.078125 C 20.714844 -14.535156 20.644531 -13.339844 20.292969 -12.21875 C 20.082031 -11.65625 19.800781 -11.515625 19.238281 -11.585938 Z M 19.238281 -11.585938 "/></g></g></g><g fill="#0b132b" fill-opacity="1"><g transform="translate(82.573848, 206.211373)"><g><path d="M 13.339844 -7.089844 C 16.921875 -6.390625 20.292969 -6.882812 23.242188 -9.128906 C 24.152344 -9.832031 24.925781 -10.601562 25.628906 -11.375 C 28.4375 -14.535156 30.332031 -18.117188 32.019531 -21.835938 C 32.300781 -22.46875 32.160156 -22.960938 31.667969 -23.171875 C 31.246094 -23.3125 30.894531 -23.171875 30.542969 -22.609375 L 29.492188 -20.363281 C 27.945312 -17.132812 26.121094 -14.183594 23.664062 -11.65625 C 21.273438 -9.269531 18.394531 -8.144531 15.027344 -8.496094 C 13.902344 -8.566406 12.847656 -8.847656 11.9375 -9.480469 C 8.144531 -11.867188 5.265625 -15.027344 3.582031 -19.238281 C 3.160156 -20.222656 3.160156 -20.925781 3.933594 -21.835938 C 5.898438 -23.804688 7.441406 -26.121094 8.988281 -28.507812 C 10.039062 -30.261719 11.164062 -32.019531 12.289062 -33.703125 C 16.570312 -39.953125 19.519531 -46.761719 21.835938 -53.855469 C 22.75 -56.59375 23.382812 -59.332031 23.523438 -62.210938 C 23.59375 -63.332031 23.453125 -64.386719 23.242188 -65.511719 C 22.398438 -69.089844 18.675781 -70.707031 15.9375 -70.144531 C 14.324219 -69.863281 12.847656 -69.160156 11.65625 -68.039062 C 10.390625 -66.914062 9.269531 -65.652344 8.285156 -64.246094 C 4.492188 -58.980469 2.316406 -52.941406 1.054688 -46.621094 C 0.210938 -41.988281 -0.0703125 -37.355469 0 -32.648438 L 0 -28.015625 C 0.140625 -24.574219 0.914062 -21.34375 2.246094 -18.1875 C 4.144531 -13.832031 7.160156 -10.460938 11.164062 -7.933594 C 11.867188 -7.582031 12.570312 -7.230469 13.339844 -7.089844 Z M 2.949219 -22.890625 C 2.808594 -22.75 2.386719 -22.890625 2.316406 -23.101562 C 2.105469 -24.082031 1.894531 -24.996094 1.824219 -25.980469 C 1.40625 -32.507812 1.472656 -39.039062 2.597656 -45.570312 C 3.441406 -50.765625 5.125 -55.75 7.722656 -60.386719 C 9.058594 -62.703125 10.601562 -64.808594 12.570312 -66.632812 C 13.832031 -67.828125 15.308594 -68.601562 17.132812 -68.53125 C 19.449219 -68.53125 21.203125 -67.125 21.695312 -64.808594 C 21.90625 -63.824219 21.976562 -62.773438 21.835938 -61.71875 C 21.835938 -58.769531 20.996094 -55.960938 20.011719 -53.222656 C 17.835938 -46.621094 15.027344 -40.304688 11.023438 -34.546875 C 9.621094 -32.4375 8.285156 -30.261719 6.953125 -28.085938 C 5.96875 -26.542969 4.84375 -24.996094 3.652344 -23.59375 C 3.441406 -23.3125 3.160156 -23.101562 2.949219 -22.890625 Z M 2.949219 -22.890625 "/></g></g></g><g fill="#0b132b" fill-opacity="1"><g transform="translate(112.622438, 206.211373)"><g><path d="M 4.5625 -12.078125 C 6.390625 -11.164062 8.074219 -11.304688 9.761719 -12.289062 C 10.53125 -12.777344 11.234375 -13.269531 11.65625 -13.972656 C 12.429688 -15.449219 13.480469 -15.515625 14.886719 -14.957031 C 15.308594 -14.746094 15.867188 -14.675781 16.359375 -14.535156 C 18.324219 -14.042969 20.292969 -13.972656 22.328125 -14.183594 C 28.367188 -14.816406 33.492188 -17.414062 37.566406 -21.90625 C 37.777344 -22.117188 37.984375 -22.398438 38.195312 -22.679688 C 38.335938 -22.890625 38.195312 -23.171875 38.054688 -23.382812 C 37.777344 -23.664062 37.496094 -23.734375 37.144531 -23.59375 C 36.933594 -23.523438 36.722656 -23.3125 36.511719 -23.171875 C 36.089844 -22.679688 35.597656 -22.257812 35.109375 -21.765625 C 31.035156 -17.90625 26.191406 -15.9375 19.730469 -15.726562 C 18.394531 -15.585938 16.359375 -16.21875 14.324219 -16.851562 C 13.691406 -16.992188 13.621094 -17.273438 13.761719 -17.835938 L 13.972656 -18.957031 C 14.394531 -20.363281 14.464844 -21.765625 14.324219 -23.242188 C 14.042969 -25.558594 12.917969 -27.382812 10.882812 -28.578125 C 9.128906 -29.699219 7.300781 -30.050781 5.40625 -28.296875 C 5.125 -28.085938 4.914062 -27.804688 4.5625 -27.804688 C 3.230469 -27.945312 2.667969 -26.960938 2.035156 -26.050781 C 0.773438 -24.152344 0.140625 -22.117188 0 -19.871094 C -0.210938 -16.148438 1.265625 -13.691406 4.5625 -12.078125 Z M 11.234375 -17.976562 C 8.917969 -19.308594 6.882812 -20.925781 5.617188 -23.382812 C 4.632812 -25.207031 6.320312 -27.382812 7.652344 -27.734375 C 8.355469 -27.945312 9.058594 -27.734375 9.691406 -27.382812 C 11.515625 -26.472656 12.429688 -24.925781 12.707031 -22.960938 C 12.777344 -22.539062 12.777344 -22.1875 12.777344 -21.835938 C 12.707031 -20.644531 12.5 -19.519531 12.078125 -18.394531 C 11.9375 -17.90625 11.585938 -17.695312 11.234375 -17.976562 Z M 6.039062 -13.269531 C 3.511719 -13.972656 1.824219 -16.007812 1.683594 -18.605469 C 1.542969 -20.503906 1.894531 -22.46875 2.878906 -24.152344 C 2.949219 -24.292969 3.089844 -24.433594 3.230469 -24.574219 C 3.582031 -24.433594 3.582031 -24.152344 3.652344 -23.941406 C 4.144531 -22.117188 5.195312 -20.644531 6.53125 -19.449219 C 7.722656 -18.324219 8.988281 -17.273438 10.320312 -16.429688 C 10.953125 -16.078125 10.953125 -15.796875 10.53125 -15.238281 C 9.96875 -14.464844 9.339844 -13.902344 8.496094 -13.480469 C 7.722656 -13.128906 6.882812 -13.058594 6.039062 -13.269531 Z M 6.039062 -13.269531 "/></g></g></g><g fill="#0b132b" fill-opacity="1"><g transform="translate(148.779036, 206.211373)"><g><path d="M 5.617188 17.273438 C 7.511719 17.625 9.339844 17.273438 11.09375 16.570312 C 13.480469 15.515625 15.378906 13.902344 16.992188 11.867188 C 19.660156 8.425781 21.132812 4.421875 21.765625 0.140625 C 22.257812 -3.019531 22.539062 -6.179688 22.539062 -9.339844 C 22.539062 -10.179688 22.820312 -10.671875 23.523438 -11.023438 C 25.628906 -12.078125 27.664062 -13.269531 29.699219 -14.324219 C 34.6875 -16.992188 39.53125 -19.941406 44.65625 -22.1875 C 44.9375 -22.328125 45.148438 -22.46875 45.359375 -22.609375 C 45.570312 -22.820312 45.640625 -23.171875 45.5 -23.523438 C 45.359375 -23.804688 45.078125 -24.011719 44.726562 -23.941406 C 44.515625 -23.941406 44.234375 -23.804688 44.023438 -23.734375 C 42.902344 -23.171875 41.777344 -22.75 40.65625 -22.117188 L 24.574219 -13.480469 C 24.152344 -13.199219 23.664062 -12.988281 23.171875 -12.777344 C 22.820312 -12.570312 22.539062 -12.777344 22.539062 -13.128906 C 22.398438 -14.746094 22.257812 -16.359375 22.1875 -17.976562 C 22.046875 -21.414062 21.695312 -24.855469 20.996094 -28.226562 C 20.785156 -29.210938 20.503906 -30.261719 19.941406 -31.105469 C 19.097656 -32.300781 17.976562 -32.578125 16.710938 -31.878906 C 15.867188 -31.386719 15.167969 -30.683594 14.535156 -29.980469 C 14.042969 -29.492188 13.691406 -28.789062 12.988281 -28.4375 C 12.289062 -29.070312 11.726562 -29.910156 10.8125 -30.261719 C 8.496094 -31.035156 6.109375 -31.105469 4.074219 -29.699219 C 1.542969 -27.875 0.5625 -25.277344 0.84375 -22.1875 C 1.054688 -20.574219 2.386719 -19.449219 4.074219 -19.449219 C 4.632812 -19.519531 5.125 -19.589844 5.617188 -19.730469 C 6.882812 -20.011719 8.003906 -20.714844 8.988281 -21.554688 C 10.742188 -22.960938 12.289062 -24.503906 13.621094 -26.261719 C 14.394531 -27.171875 15.097656 -28.085938 15.867188 -28.929688 C 16.289062 -29.492188 16.851562 -29.980469 17.484375 -30.332031 C 17.90625 -30.613281 18.324219 -30.542969 18.605469 -30.050781 C 19.097656 -29.210938 19.308594 -28.296875 19.519531 -27.3125 C 20.152344 -23.875 20.433594 -20.363281 20.644531 -16.851562 C 20.714844 -15.449219 20.714844 -14.042969 20.785156 -12.640625 C 20.855469 -11.796875 20.644531 -11.234375 19.871094 -10.882812 C 19.589844 -10.8125 19.378906 -10.601562 19.167969 -10.460938 C 16.289062 -8.777344 13.480469 -6.882812 10.742188 -4.914062 C 8.777344 -3.441406 6.882812 -1.824219 5.195312 -0.0703125 C 3.582031 1.542969 2.175781 3.371094 1.125 5.40625 C -0.210938 7.933594 -0.351562 10.601562 0.703125 13.269531 C 1.613281 15.449219 3.160156 16.851562 5.617188 17.273438 Z M 4.492188 -21.203125 C 3.300781 -20.996094 2.527344 -21.625 2.386719 -22.890625 C 2.316406 -24.082031 2.667969 -25.136719 3.230469 -26.191406 C 4.214844 -28.226562 5.828125 -29.210938 8.074219 -29.140625 C 9.339844 -29.140625 10.53125 -28.859375 11.375 -27.804688 C 11.867188 -27.171875 11.867188 -26.683594 11.304688 -26.050781 C 10.109375 -24.714844 8.847656 -23.382812 7.371094 -22.398438 C 6.53125 -21.765625 5.546875 -21.273438 4.492188 -21.203125 Z M 6.320312 15.65625 C 4.351562 15.515625 3.089844 14.535156 2.316406 12.777344 C 1.472656 10.882812 1.472656 8.988281 2.175781 7.089844 C 2.527344 6.109375 3.089844 5.195312 3.652344 4.351562 C 5.054688 2.386719 6.671875 0.632812 8.496094 -0.914062 C 11.867188 -3.863281 15.585938 -6.390625 19.449219 -8.707031 C 19.660156 -8.847656 19.871094 -8.917969 20.152344 -9.058594 C 20.433594 -9.199219 20.714844 -8.988281 20.785156 -8.636719 L 20.785156 -6.390625 C 20.503906 -2.738281 20.222656 0.84375 19.097656 4.214844 C 18.324219 6.8125 17.0625 9.128906 15.378906 11.234375 C 13.972656 12.988281 12.21875 14.253906 10.109375 15.167969 C 8.917969 15.65625 7.652344 15.796875 6.320312 15.65625 Z M 6.320312 15.65625 "/></g></g></g><g fill="#0b132b" fill-opacity="1"><g transform="translate(192.23717, 206.211373)"><g><path d="M 2.386719 -27.382812 C 3.089844 -27.664062 3.582031 -28.367188 3.582031 -29 C 3.511719 -29.558594 3.230469 -29.980469 2.738281 -30.261719 C 2.457031 -30.402344 2.105469 -30.402344 1.824219 -30.121094 C 1.335938 -29.558594 0.984375 -28.859375 1.195312 -28.015625 C 1.335938 -27.523438 1.964844 -27.171875 2.386719 -27.382812 Z M 9.058594 -9.269531 C 10.179688 -9.269531 11.375 -9.339844 12.5 -9.621094 C 15.027344 -10.179688 17.273438 -11.304688 19.308594 -12.777344 C 22.046875 -14.675781 24.433594 -16.992188 26.75 -19.308594 C 27.59375 -20.152344 28.4375 -20.996094 29.210938 -21.835938 C 29.492188 -22.117188 29.558594 -22.539062 29.28125 -22.890625 C 29 -23.171875 28.578125 -23.242188 28.226562 -22.960938 C 27.664062 -22.539062 27.101562 -22.046875 26.613281 -21.554688 C 24.785156 -19.589844 22.890625 -17.765625 20.855469 -16.007812 C 18.886719 -14.324219 16.78125 -12.847656 14.324219 -11.867188 C 12.007812 -10.953125 9.621094 -10.601562 7.089844 -11.09375 C 5.40625 -11.375 4.214844 -12.21875 3.371094 -13.621094 C 2.035156 -15.796875 1.40625 -18.117188 1.753906 -20.644531 C 1.824219 -21.203125 1.894531 -21.835938 1.894531 -22.398438 C 1.964844 -22.75 1.753906 -23.03125 1.40625 -23.101562 C 1.125 -23.242188 0.632812 -23.03125 0.492188 -22.609375 C 0.351562 -22.117188 0.140625 -21.625 0.0703125 -21.132812 C -0.210938 -18.464844 0.210938 -16.007812 1.40625 -13.621094 C 2.808594 -10.882812 4.984375 -9.339844 8.074219 -9.339844 C 8.355469 -9.269531 8.707031 -9.269531 9.058594 -9.269531 Z M 9.058594 -9.269531 "/></g></g></g><g fill="#0b132b" fill-opacity="1"><g transform="translate(219.617902, 206.211373)"><g><path d="M 8.425781 -4.074219 C 12.148438 -4.5625 15.585938 -5.898438 18.957031 -7.371094 C 24.644531 -10.039062 29.070312 -14.113281 32.578125 -19.238281 C 33.070312 -19.941406 33.492188 -20.785156 33.914062 -21.554688 C 34.054688 -21.835938 34.195312 -22.1875 34.195312 -22.46875 C 34.265625 -22.75 34.125 -23.03125 33.914062 -23.171875 C 33.632812 -23.3125 33.28125 -23.3125 33 -23.101562 C 32.789062 -22.820312 32.578125 -22.46875 32.367188 -22.117188 C 31.878906 -21.34375 31.457031 -20.433594 30.894531 -19.660156 C 26.050781 -12.707031 19.308594 -8.496094 11.234375 -6.25 C 10.460938 -6.039062 9.691406 -5.898438 8.917969 -5.828125 C 8.355469 -5.757812 7.792969 -5.546875 7.230469 -5.898438 C 7.160156 -6.179688 7.300781 -6.390625 7.511719 -6.601562 C 8.355469 -7.722656 8.566406 -9.058594 8.496094 -10.460938 C 8.425781 -12.640625 7.792969 -14.675781 6.742188 -16.570312 C 6.109375 -17.765625 5.335938 -18.886719 4.5625 -20.011719 C 3.722656 -21.34375 2.949219 -22.75 2.527344 -24.363281 C 2.246094 -25.558594 2.457031 -26.542969 3.089844 -27.523438 C 4.144531 -29.140625 5.757812 -29.699219 7.652344 -29.492188 C 8.917969 -29.351562 10.109375 -28.859375 11.234375 -28.15625 C 12.847656 -27.242188 13.621094 -25.839844 13.761719 -24.011719 L 13.761719 -23.101562 C 13.832031 -22.75 14.042969 -22.46875 14.394531 -22.46875 C 14.746094 -22.398438 15.027344 -22.539062 15.167969 -22.890625 C 15.308594 -23.171875 15.378906 -23.523438 15.378906 -23.804688 C 15.449219 -25.699219 14.816406 -27.382812 13.339844 -28.648438 C 11.304688 -30.402344 8.917969 -31.246094 6.179688 -31.105469 C 2.527344 -30.894531 -0.140625 -26.960938 0.984375 -23.59375 C 1.542969 -21.976562 2.246094 -20.503906 3.230469 -19.097656 C 4.074219 -17.90625 4.773438 -16.710938 5.476562 -15.449219 C 6.320312 -13.832031 6.742188 -12.078125 6.882812 -10.25 C 7.023438 -8.074219 5.828125 -6.671875 3.652344 -6.460938 C 3.089844 -6.390625 2.457031 -6.53125 1.894531 -6.53125 L 0.5625 -6.53125 C 0 -6.460938 -0.210938 -5.6875 0.140625 -5.265625 C 0.5625 -4.773438 1.125 -4.5625 1.683594 -4.492188 C 3.933594 -4.144531 6.179688 -3.792969 8.425781 -4.074219 Z M 8.425781 -4.074219 "/></g></g></g><g fill="#0b132b" fill-opacity="1"><g transform="translate(251.702487, 206.211373)"><g><path d="M 38.195312 -22.960938 C 37.917969 -23.171875 37.566406 -23.242188 37.285156 -23.101562 C 37.074219 -22.960938 36.863281 -22.820312 36.722656 -22.609375 C 36.230469 -22.046875 35.808594 -21.484375 35.386719 -20.925781 C 32.71875 -17.34375 29.769531 -14.113281 26.472656 -11.164062 C 24.925781 -9.761719 23.242188 -8.566406 21.414062 -7.582031 C 20.644531 -7.230469 19.871094 -6.8125 19.027344 -6.8125 C 14.535156 -6.601562 10.601562 -7.792969 7.652344 -11.445312 C 6.320312 -13.058594 5.335938 -14.886719 4.492188 -16.78125 C 2.878906 -19.941406 2.667969 -21.484375 3.019531 -23.664062 C 3.019531 -23.382812 5.125 -33.914062 6.109375 -42.691406 L 31.597656 -42.691406 C 32.648438 -42.691406 32.71875 -44.09375 31.597656 -44.09375 L 6.25 -44.09375 C 6.460938 -46.414062 6.601562 -48.589844 6.53125 -50.34375 C 6.460938 -50.976562 6.25 -51.609375 5.828125 -52.097656 C 5.054688 -53.082031 3.863281 -53.152344 2.949219 -52.378906 C 2.386719 -51.890625 2.035156 -51.257812 1.753906 -50.625 C 0.984375 -48.871094 0.492188 -47.042969 0.28125 -45.21875 C 0.28125 -44.867188 0.210938 -44.445312 0.210938 -44.09375 L -15.65625 -44.09375 C -16.640625 -44.09375 -16.640625 -42.691406 -15.65625 -42.691406 L 0.0703125 -42.691406 C -0.632812 -32.4375 -1.265625 -22.328125 5.476562 -11.65625 C 7.792969 -8.144531 11.023438 -6.25 14.957031 -5.40625 C 17.90625 -4.773438 20.785156 -5.125 23.382812 -6.8125 C 24.996094 -7.863281 26.542969 -9.058594 28.015625 -10.320312 C 31.667969 -13.691406 34.828125 -17.414062 37.777344 -21.414062 C 37.984375 -21.625 38.125 -21.90625 38.265625 -22.1875 C 38.40625 -22.46875 38.335938 -22.75 38.195312 -22.960938 Z M 2.105469 -46.691406 C 2.386719 -48.097656 2.808594 -49.429688 3.582031 -50.695312 C 3.722656 -50.976562 4.003906 -51.1875 4.351562 -51.117188 C 4.703125 -51.046875 4.84375 -50.695312 4.84375 -50.414062 C 5.054688 -48.871094 5.054688 -46.621094 4.84375 -44.09375 L 1.753906 -44.09375 C 1.824219 -44.9375 1.964844 -45.851562 2.105469 -46.691406 Z M 1.40625 -40.164062 C 1.472656 -40.933594 1.542969 -41.777344 1.613281 -42.691406 L 4.703125 -42.691406 C 4.074219 -36.441406 2.597656 -28.71875 1.824219 -24.363281 C 0.84375 -30.683594 1.40625 -39.390625 1.40625 -40.164062 Z M 1.40625 -40.164062 "/></g></g></g><g fill="#0b132b" fill-opacity="1"><g transform="translate(287.929306, 206.211373)"><g><path d="M 25.277344 -8.777344 C 28.789062 -7.863281 32.230469 -8.355469 35.527344 -9.832031 C 37.984375 -10.953125 40.304688 -12.359375 42.480469 -14.042969 C 45.5 -16.359375 48.027344 -19.097656 50.625 -21.90625 L 50.90625 -22.328125 C 51.117188 -22.679688 51.046875 -23.171875 50.765625 -23.382812 C 50.484375 -23.59375 50.132812 -23.59375 49.851562 -23.382812 C 49.570312 -23.171875 49.359375 -22.960938 49.152344 -22.75 C 48.308594 -21.835938 47.464844 -20.925781 46.621094 -20.082031 C 43.535156 -16.851562 40.164062 -14.042969 36.160156 -12.007812 C 34.265625 -11.023438 32.230469 -10.390625 30.121094 -10.039062 C 23.941406 -9.269531 19.308594 -13.550781 18.046875 -18.046875 C 17.554688 -20.011719 17.554688 -21.976562 17.765625 -24.011719 C 17.835938 -25.136719 17.976562 -26.191406 18.046875 -27.3125 C 18.117188 -27.734375 18.117188 -28.226562 18.046875 -28.648438 C 17.90625 -29.699219 17.132812 -30.121094 16.21875 -29.558594 C 15.796875 -29.351562 15.378906 -29 14.816406 -28.578125 L 13.902344 -29.839844 C 13.128906 -30.894531 12.007812 -31.527344 10.671875 -31.738281 C 8.777344 -32.019531 7.023438 -31.667969 5.476562 -30.542969 C 4.5625 -29.910156 3.792969 -29.140625 3.160156 -28.226562 C 1.683594 -26.191406 0.703125 -23.941406 0.28125 -21.484375 C 0 -20.222656 -0.0703125 -18.886719 0.210938 -17.625 C 0.773438 -14.535156 3.441406 -13.480469 6.039062 -15.238281 C 6.390625 -15.449219 6.742188 -15.726562 7.089844 -16.078125 L 9.199219 -18.324219 C 10.953125 -20.363281 12.570312 -22.46875 14.042969 -24.644531 C 14.605469 -25.417969 15.167969 -26.121094 15.726562 -26.820312 C 15.796875 -26.890625 15.9375 -26.890625 16.078125 -26.890625 C 16.359375 -26.960938 16.359375 -26.683594 16.359375 -26.542969 C 16.148438 -24.785156 16.007812 -23.03125 16.007812 -21.273438 C 16.007812 -19.589844 16.289062 -17.90625 16.921875 -16.359375 C 18.535156 -12.5 21.203125 -9.898438 25.277344 -8.777344 Z M 4.773438 -16.359375 C 3.582031 -15.726562 2.667969 -16.007812 2.035156 -17.203125 C 1.753906 -17.90625 1.613281 -18.605469 1.613281 -19.308594 C 1.894531 -22.75 3.019531 -25.839844 5.476562 -28.367188 C 6.953125 -29.910156 8.777344 -30.613281 10.953125 -29.910156 C 12.289062 -29.492188 12.917969 -28.578125 13.339844 -27.3125 C 13.410156 -27.03125 13.410156 -26.683594 13.199219 -26.402344 L 12.777344 -25.769531 C 11.023438 -23.171875 9.128906 -20.785156 7.089844 -18.394531 C 6.390625 -17.625 5.6875 -16.921875 4.773438 -16.359375 Z M 4.773438 -16.359375 "/></g></g></g><g fill="#0b132b" fill-opacity="1"><g transform="translate(89.326107, 229.603286)"><g><path d="M 8.597656 -6.394531 L 6.988281 -1.121094 L 4.875 -6.324219 L 4.835938 -6.324219 L 4.46875 -5.40625 L 2.714844 -1.101562 L 1.089844 -6.394531 L 0.335938 -6.386719 L 2.335938 0.144531 L 2.398438 0.144531 L 4.550781 -5.179688 L 6.710938 0.144531 L 6.773438 0.144531 L 8.78125 -6.394531 Z M 8.597656 -6.394531 "/></g></g></g><g fill="#0b132b" fill-opacity="1"><g transform="translate(104.052006, 229.603286)"><g><path d="M 4.210938 -6.394531 L 4.210938 -3.417969 L 1.214844 -3.417969 L 1.214844 -6.394531 L 0.488281 -6.394531 L 0.488281 0.0117188 L 1.214844 0.0117188 L 1.214844 -3.253906 L 4.210938 -3.253906 L 4.210938 0.0117188 L 4.945312 0.0117188 L 4.945312 -6.394531 Z M 4.210938 -6.394531 "/></g></g></g><g fill="#0b132b" fill-opacity="1"><g transform="translate(115.107613, 229.603286)"><g><path d="M 5.335938 0.0117188 L 6.121094 0.0117188 L 3.316406 -6.519531 L 3.265625 -6.519531 L 0.355469 0.0117188 L 0.582031 0.0117188 L 1.734375 -2.558594 L 4.222656 -2.558594 Z M 1.804688 -2.734375 L 3 -5.417969 L 4.152344 -2.734375 Z M 1.804688 -2.734375 "/></g></g></g><g fill="#0b132b" fill-opacity="1"><g transform="translate(127.172555, 229.603286)"><g><path d="M 5.007812 -6.394531 L 0.335938 -6.394531 L 0.335938 -6.230469 L 2.304688 -6.230469 L 2.304688 0.0117188 L 3.039062 0.0117188 L 3.039062 -6.230469 L 5.007812 -6.230469 Z M 5.007812 -6.394531 "/></g></g></g><g fill="#0b132b" fill-opacity="1"><g transform="translate(138.105813, 229.603286)"><g><path d="M 0.253906 -0.46875 L 0.253906 -0.234375 C 0.253906 -0.234375 0.878906 0.265625 1.980469 0.265625 C 3.082031 0.265625 4.132812 -0.5 4.132812 -1.632812 C 4.132812 -3.917969 0.855469 -3.242188 0.855469 -5.101562 C 0.855469 -5.824219 1.355469 -6.414062 2.234375 -6.414062 C 3.101562 -6.414062 3.660156 -5.996094 3.660156 -5.996094 L 3.652344 -6.210938 C 3.652344 -6.210938 3.039062 -6.589844 2.222656 -6.589844 C 1.417969 -6.589844 0.285156 -6.097656 0.285156 -4.824219 C 0.285156 -2.539062 3.550781 -3.398438 3.550781 -1.378906 C 3.550781 -0.386719 2.792969 0.101562 1.980469 0.101562 C 1.101562 0.101562 0.613281 -0.195312 0.253906 -0.46875 Z M 0.253906 -0.46875 "/></g></g></g><g fill="#0b132b" fill-opacity="1"><g transform="translate(148.223454, 229.603286)"><g/></g></g><g fill="#0b132b" fill-opacity="1"><g transform="translate(156.353027, 229.603286)"><g><path d="M 4.96875 -6.394531 L 3.03125 -3.140625 L 1.164062 -6.394531 L 0.328125 -6.394531 L 2.386719 -2.785156 L 2.386719 0.0117188 L 3.121094 0.0117188 L 3.121094 -2.976562 L 5.171875 -6.394531 Z M 4.96875 -6.394531 "/></g></g></g><g fill="#0b132b" fill-opacity="1"><g transform="translate(167.439227, 229.603286)"><g><path d="M 3.917969 -6.519531 C 2.082031 -6.519531 0.40625 -5.539062 0.40625 -3.171875 C 0.40625 -0.449219 2.632812 0.195312 3.917969 0.195312 C 5.191406 0.195312 7.425781 -0.449219 7.425781 -3.171875 C 7.425781 -5.539062 5.742188 -6.519531 3.917969 -6.519531 Z M 3.917969 0.0195312 C 2.765625 0.0195312 1.152344 -0.488281 1.152344 -3.171875 C 1.152344 -5.8125 2.925781 -6.355469 3.917969 -6.355469 C 4.90625 -6.355469 6.679688 -5.8125 6.679688 -3.171875 C 6.679688 -0.488281 5.058594 0.0195312 3.917969 0.0195312 Z M 3.917969 0.0195312 "/></g></g></g><g fill="#0b132b" fill-opacity="1"><g transform="translate(180.911108, 229.603286)"><g><path d="M 5.152344 -6.394531 L 5.152344 -2.449219 C 5.152344 -0.5 4.160156 -0.0703125 3 -0.0703125 C 1.273438 -0.0703125 1.183594 -1.632812 1.183594 -2.355469 L 1.183594 -6.394531 L 0.460938 -6.394531 L 0.460938 -2.355469 C 0.460938 -0.277344 1.640625 0.195312 2.847656 0.195312 C 4.476562 0.195312 5.324219 -0.671875 5.324219 -2.355469 L 5.324219 -6.394531 Z M 5.152344 -6.394531 "/></g></g></g><g fill="#0b132b" fill-opacity="1"><g transform="translate(192.313359, 229.603286)"><g><path d="M 4.976562 0.0117188 L 2.582031 -3.007812 C 3.335938 -3.109375 4.476562 -3.476562 4.476562 -4.792969 C 4.476562 -6.203125 2.949219 -6.394531 2.425781 -6.394531 C 1.929688 -6.394531 0.488281 -6.394531 0.488281 -6.394531 L 0.488281 0.0117188 L 1.214844 0.0117188 L 1.214844 -2.96875 L 1.683594 -2.96875 L 4.050781 0.0117188 Z M 1.214844 -6.230469 L 2.039062 -6.230469 C 3.082031 -6.230469 3.703125 -5.804688 3.703125 -4.683594 C 3.703125 -3.539062 2.96875 -3.132812 1.773438 -3.132812 L 1.214844 -3.132812 Z M 1.214844 -6.230469 "/></g></g></g><g fill="#0b132b" fill-opacity="1"><g transform="translate(203.216042, 229.603286)"><g/></g></g><g fill="#0b132b" fill-opacity="1"><g transform="translate(211.345615, 229.603286)"><g><path d="M 0.480469 -6.394531 L 0.480469 0.164062 C 0.480469 1.171875 0.335938 1.816406 -0.671875 1.816406 L -0.671875 1.980469 C 0.53125 1.980469 1.214844 1.140625 1.214844 0.164062 L 1.214844 -6.394531 Z M 0.480469 -6.394531 "/></g></g></g><g fill="#0b132b" fill-opacity="1"><g transform="translate(218.669765, 229.603286)"><g><path d="M 3.917969 -6.519531 C 2.082031 -6.519531 0.40625 -5.539062 0.40625 -3.171875 C 0.40625 -0.449219 2.632812 0.195312 3.917969 0.195312 C 5.191406 0.195312 7.425781 -0.449219 7.425781 -3.171875 C 7.425781 -5.539062 5.742188 -6.519531 3.917969 -6.519531 Z M 3.917969 0.0195312 C 2.765625 0.0195312 1.152344 -0.488281 1.152344 -3.171875 C 1.152344 -5.8125 2.925781 -6.355469 3.917969 -6.355469 C 4.90625 -6.355469 6.679688 -5.8125 6.679688 -3.171875 C 6.679688 -0.488281 5.058594 0.0195312 3.917969 0.0195312 Z M 3.917969 0.0195312 "/></g></g></g><g fill="#0b132b" fill-opacity="1"><g transform="translate(232.141646, 229.603286)"><g><path d="M 5.152344 -6.394531 L 5.152344 -2.449219 C 5.152344 -0.5 4.160156 -0.0703125 3 -0.0703125 C 1.273438 -0.0703125 1.183594 -1.632812 1.183594 -2.355469 L 1.183594 -6.394531 L 0.460938 -6.394531 L 0.460938 -2.355469 C 0.460938 -0.277344 1.640625 0.195312 2.847656 0.195312 C 4.476562 0.195312 5.324219 -0.671875 5.324219 -2.355469 L 5.324219 -6.394531 Z M 5.152344 -6.394531 "/></g></g></g><g fill="#0b132b" fill-opacity="1"><g transform="translate(243.543897, 229.603286)"><g><path d="M 4.976562 0.0117188 L 2.582031 -3.007812 C 3.335938 -3.109375 4.476562 -3.476562 4.476562 -4.792969 C 4.476562 -6.203125 2.949219 -6.394531 2.425781 -6.394531 C 1.929688 -6.394531 0.488281 -6.394531 0.488281 -6.394531 L 0.488281 0.0117188 L 1.214844 0.0117188 L 1.214844 -2.96875 L 1.683594 -2.96875 L 4.050781 0.0117188 Z M 1.214844 -6.230469 L 2.039062 -6.230469 C 3.082031 -6.230469 3.703125 -5.804688 3.703125 -4.683594 C 3.703125 -3.539062 2.96875 -3.132812 1.773438 -3.132812 L 1.214844 -3.132812 Z M 1.214844 -6.230469 "/></g></g></g><g fill="#0b132b" fill-opacity="1"><g transform="translate(254.44658, 229.603286)"><g><path d="M 5.691406 -6.394531 L 5.527344 -6.394531 L 5.527344 -0.96875 L 0.511719 -6.519531 L 0.488281 -6.519531 L 0.488281 0.0117188 L 0.652344 0.0117188 L 0.652344 -5.355469 L 5.660156 0.195312 L 5.691406 0.195312 Z M 5.691406 -6.394531 "/></g></g></g><g fill="#0b132b" fill-opacity="1"><g transform="translate(266.256641, 229.603286)"><g><path d="M 3.734375 -6.230469 L 3.734375 -6.394531 L 0.488281 -6.394531 L 0.488281 0.0117188 L 3.734375 0.0117188 L 3.734375 -0.152344 L 1.214844 -0.152344 L 1.214844 -3.253906 L 3.457031 -3.253906 L 3.457031 -3.417969 L 1.214844 -3.417969 L 1.214844 -6.230469 Z M 3.734375 -6.230469 "/></g></g></g><g fill="#0b132b" fill-opacity="1"><g transform="translate(276.007259, 229.603286)"><g><path d="M 4.96875 -6.394531 L 3.03125 -3.140625 L 1.164062 -6.394531 L 0.328125 -6.394531 L 2.386719 -2.785156 L 2.386719 0.0117188 L 3.121094 0.0117188 L 3.121094 -2.976562 L 5.171875 -6.394531 Z M 4.96875 -6.394531 "/></g></g></g><g fill="#0b132b" fill-opacity="1"><g transform="translate(287.093459, 229.603286)"><g><path d="M 0.347656 -5.96875 C 0.613281 -6.179688 1.019531 -6.355469 1.613281 -6.355469 C 2.335938 -6.355469 2.765625 -5.753906 2.765625 -5.078125 C 2.765625 -3.773438 0.664062 -3.703125 0.664062 -2.417969 C 0.664062 -1.949219 0.96875 -1.398438 1.816406 -1.398438 C 2.234375 -1.398438 2.46875 -1.550781 2.46875 -1.550781 L 2.46875 -1.714844 C 2.46875 -1.714844 2.273438 -1.5625 1.824219 -1.5625 C 1.296875 -1.5625 1.089844 -1.917969 1.089844 -2.265625 C 1.089844 -3.273438 3.242188 -3.316406 3.242188 -4.945312 C 3.242188 -5.84375 2.714844 -6.519531 1.632812 -6.519531 C 0.828125 -6.519531 0.367188 -6.152344 0.347656 -6.152344 Z M 1.5625 0.171875 L 2.03125 -0.296875 L 1.5625 -0.765625 L 1.089844 -0.296875 Z M 1.5625 0.171875 "/></g></g></g></svg>