<svg xmlns="http://www.w3.org/2000/svg" xmlns:xlink="http://www.w3.org/1999/xlink" width="500" zoomAndPan="magnify" viewBox="0 0 375 374.999991" height="500" preserveAspectRatio="xMidYMid meet" version="1.0"><defs><g/><clipPath id="id1"><path d="M 83.671875 77.582031 L 291.164062 77.582031 L 291.164062 285.074219 L 83.671875 285.074219 Z M 83.671875 77.582031 " clip-rule="nonzero"/></clipPath></defs><g clip-path="url(#id1)"><path fill="#000000" d="M 187.417969 285.074219 C 159.71875 285.074219 133.636719 274.292969 114.066406 254.679688 C 94.453125 235.109375 83.671875 209.027344 83.671875 181.328125 C 83.671875 153.628906 94.453125 127.546875 114.066406 107.976562 C 133.636719 88.363281 159.71875 77.582031 187.417969 77.582031 C 215.117188 77.582031 241.199219 88.363281 260.769531 107.976562 C 280.382812 127.589844 291.164062 153.628906 291.164062 181.328125 C 291.164062 209.027344 280.382812 235.109375 260.769531 254.679688 C 241.199219 274.292969 215.117188 285.074219 187.417969 285.074219 Z M 187.417969 83.800781 C 161.375 83.800781 136.871094 93.960938 118.460938 112.371094 C 100.050781 130.78125 89.890625 155.285156 89.890625 181.328125 C 89.890625 207.367188 100.050781 231.875 118.460938 250.285156 C 136.871094 268.695312 161.375 278.855469 187.417969 278.855469 C 213.457031 278.855469 237.964844 268.695312 256.375 250.285156 C 274.785156 231.875 284.945312 207.367188 284.945312 181.328125 C 284.945312 155.285156 274.785156 130.78125 256.375 112.371094 C 237.964844 93.960938 213.457031 83.800781 187.417969 83.800781 Z M 187.417969 83.800781 " fill-opacity="1" fill-rule="nonzero"/></g><g fill="#000000" fill-opacity="1"><g transform="translate(135.300392, 245.61992)"><g><path d="M 69.578125 -76.609375 C 67.472656 -74.390625 65.070312 -72.75 62.375 -71.6875 C 73.851562 -70.050781 82.578125 -65.984375 88.546875 -59.484375 C 94.523438 -52.984375 97.515625 -45.046875 97.515625 -35.671875 C 97.515625 -24.304688 92.945312 -15.109375 83.8125 -8.078125 C 74.675781 -1.054688 62.664062 2.453125 47.78125 2.453125 C 32.90625 2.453125 21.25 -1.203125 12.8125 -8.515625 C 4.382812 -15.835938 0.171875 -26.175781 0.171875 -39.53125 C 0.171875 -40.238281 0.171875 -40.941406 0.171875 -41.640625 L 2.109375 -42 C 4.453125 -24.539062 11.710938 -13.234375 23.890625 -8.078125 L 23.890625 -110.34375 C 23.660156 -113.507812 22.460938 -116.117188 20.296875 -118.171875 C 18.128906 -120.222656 15.519531 -121.25 12.46875 -121.25 L 10.359375 -121.25 L 10.359375 -123 L 39.890625 -123 C 50.898438 -123 59.710938 -120.476562 66.328125 -115.4375 C 72.953125 -110.40625 76.265625 -103.816406 76.265625 -95.671875 C 76.265625 -87.535156 74.035156 -81.179688 69.578125 -76.609375 Z M 35.3125 -117.375 L 35.3125 -4.921875 C 39.175781 -4.335938 43.628906 -4.046875 48.671875 -4.046875 C 59.921875 -4.046875 68.675781 -7.0625 74.9375 -13.09375 C 81.207031 -19.125 84.34375 -26.941406 84.34375 -36.546875 C 84.34375 -41.703125 83.375 -46.269531 81.4375 -50.25 C 79.507812 -54.238281 77.082031 -57.34375 74.15625 -59.5625 C 66.414062 -65.539062 55.519531 -68.53125 41.46875 -68.53125 C 41.351562 -68.53125 41.296875 -68.53125 41.296875 -68.53125 L 41.109375 -70.109375 C 41.234375 -70.109375 41.296875 -70.109375 41.296875 -70.109375 C 47.265625 -70.109375 52.382812 -72.070312 56.65625 -76 C 60.9375 -79.925781 63.078125 -85.988281 63.078125 -94.1875 C 63.078125 -109.644531 54.582031 -117.375 37.59375 -117.375 Z M 35.3125 -117.375 "/></g></g></g></svg>