<svg xmlns="http://www.w3.org/2000/svg" xmlns:xlink="http://www.w3.org/1999/xlink" width="200" zoomAndPan="magnify" viewBox="0 0 150 74.999997" height="100" preserveAspectRatio="xMidYMid meet" version="1.0"><defs><g/></defs><g fill="#000000" fill-opacity="1"><g transform="translate(8.132815, 46.500728)"><g><path d="M 4.402344 -2.453125 C 6.097656 -1.382812 8.015625 -1.886719 9.054688 -3.585938 C 9.085938 -3.617188 9.117188 -3.617188 9.117188 -3.648438 C 9.304688 -4.277344 9.714844 -4.433594 10.3125 -4.339844 C 10.4375 -4.308594 10.53125 -4.339844 10.65625 -4.339844 C 11.351562 -4.277344 12.042969 -4.371094 12.734375 -4.527344 C 13.140625 -4.652344 13.582031 -4.777344 13.992188 -4.875 C 14.964844 -5.15625 15.878906 -5.597656 16.726562 -6.164062 C 18.265625 -7.199219 19.523438 -8.550781 20.71875 -9.933594 C 20.75 -9.996094 20.8125 -10.0625 20.84375 -10.15625 C 20.875 -10.28125 20.84375 -10.375 20.75 -10.46875 C 20.6875 -10.5625 20.5625 -10.59375 20.4375 -10.5625 C 20.308594 -10.5 20.183594 -10.40625 20.089844 -10.3125 L 19.335938 -9.464844 C 18.425781 -8.425781 17.386719 -7.484375 16.222656 -6.695312 C 15.5625 -6.257812 14.871094 -5.910156 14.117188 -5.691406 C 13.550781 -5.503906 13.015625 -5.34375 12.449219 -5.21875 C 11.695312 -5 10.941406 -4.96875 10.1875 -5.03125 C 9.871094 -5.0625 9.777344 -5.15625 9.839844 -5.503906 L 10.03125 -6.695312 C 10.125 -7.515625 9.996094 -8.300781 9.683594 -9.085938 C 9.367188 -9.902344 8.804688 -10.5 7.953125 -10.816406 C 7.105469 -11.128906 6.128906 -10.878906 5.597656 -10.1875 C 5 -9.464844 4.746094 -8.613281 5 -7.671875 C 5.25 -6.695312 5.816406 -5.941406 6.601562 -5.34375 C 7.136719 -4.9375 7.734375 -4.652344 8.394531 -4.496094 C 8.550781 -4.433594 8.613281 -4.277344 8.519531 -4.148438 C 8.082031 -3.238281 7.386719 -2.671875 6.382812 -2.640625 C 5.785156 -2.609375 5.21875 -2.765625 4.714844 -3.082031 C 3.710938 -3.773438 2.890625 -4.589844 2.390625 -5.722656 C 1.949219 -6.726562 1.601562 -7.734375 1.289062 -8.773438 C 1.164062 -9.242188 1.164062 -9.273438 1.601562 -9.527344 C 2.640625 -10.21875 3.585938 -11.035156 4.496094 -11.914062 C 5.691406 -13.109375 6.726562 -14.492188 7.734375 -15.878906 C 9.273438 -17.921875 10.09375 -20.246094 10.40625 -22.792969 C 10.53125 -23.988281 10.4375 -25.152344 9.964844 -26.285156 C 9.464844 -27.351562 8.742188 -28.171875 7.671875 -28.703125 C 6.382812 -29.300781 5.15625 -29.207031 3.960938 -28.453125 C 3.300781 -28.042969 2.765625 -27.511719 2.359375 -26.882812 C 1.320312 -25.371094 0.472656 -23.738281 0.03125 -21.945312 C -0.722656 -19.117188 -0.785156 -16.285156 -0.441406 -13.394531 C -0.25 -12.011719 0.1875 -10.691406 0.3125 -9.304688 C 0.3125 -9.210938 0.347656 -9.117188 0.410156 -9.054688 C 0.566406 -8.804688 0.628906 -8.519531 0.691406 -8.238281 C 1.007812 -7.292969 1.320312 -6.320312 1.761719 -5.375 C 2.328125 -4.117188 3.238281 -3.175781 4.402344 -2.453125 Z M 1.476562 -10.21875 C 1.101562 -9.964844 0.976562 -10.03125 0.878906 -10.4375 C 0.753906 -10.847656 0.660156 -11.285156 0.597656 -11.695312 C 0.25 -13.300781 0.125 -14.902344 0.0625 -16.441406 C 0.09375 -18.015625 0.21875 -19.492188 0.503906 -20.9375 C 0.941406 -22.984375 1.824219 -24.835938 2.988281 -26.566406 C 3.238281 -26.914062 3.550781 -27.226562 3.867188 -27.511719 C 5.566406 -28.988281 7.515625 -28.453125 8.675781 -26.976562 C 9.558594 -25.90625 9.839844 -24.648438 9.714844 -23.296875 C 9.496094 -20.75 8.675781 -18.390625 7.167969 -16.285156 C 5.941406 -14.621094 4.714844 -12.984375 3.175781 -11.570312 C 2.640625 -11.097656 2.074219 -10.625 1.476562 -10.21875 Z M 8.613281 -5.1875 C 7.261719 -5.375 5.816406 -6.757812 5.628906 -8.113281 C 5.566406 -8.742188 5.753906 -9.335938 6.195312 -9.777344 C 6.695312 -10.3125 7.453125 -10.375 8.113281 -9.933594 C 8.773438 -9.527344 9.085938 -8.867188 9.242188 -8.144531 C 9.304688 -7.796875 9.304688 -7.386719 9.304688 -7.199219 C 9.273438 -6.507812 9.242188 -5.972656 9.085938 -5.46875 C 8.992188 -5.21875 8.867188 -5.15625 8.613281 -5.1875 Z M 8.613281 -5.1875 "/></g></g></g><g fill="#000000" fill-opacity="1"><g transform="translate(28.027852, 46.500728)"><g><path d="M 5.972656 -3.175781 C 7.578125 -2.859375 9.085938 -3.082031 10.40625 -4.085938 C 10.816406 -4.402344 11.160156 -4.746094 11.476562 -5.09375 C 12.734375 -6.507812 13.582031 -8.113281 14.335938 -9.777344 C 14.460938 -10.0625 14.398438 -10.28125 14.179688 -10.375 C 13.992188 -10.4375 13.832031 -10.375 13.675781 -10.125 L 13.203125 -9.117188 C 12.511719 -7.671875 11.695312 -6.351562 10.59375 -5.21875 C 9.527344 -4.148438 8.238281 -3.648438 6.726562 -3.804688 C 6.226562 -3.835938 5.753906 -3.960938 5.34375 -4.246094 C 3.648438 -5.3125 2.359375 -6.726562 1.601562 -8.613281 C 1.414062 -9.054688 1.414062 -9.367188 1.761719 -9.777344 C 2.640625 -10.65625 3.332031 -11.695312 4.023438 -12.765625 C 4.496094 -13.550781 5 -14.335938 5.503906 -15.089844 C 7.417969 -17.890625 8.742188 -20.9375 9.777344 -24.113281 C 10.1875 -25.339844 10.46875 -26.566406 10.53125 -27.855469 C 10.5625 -28.359375 10.5 -28.832031 10.40625 -29.332031 C 10.03125 -30.9375 8.363281 -31.660156 7.136719 -31.410156 C 6.414062 -31.28125 5.753906 -30.96875 5.21875 -30.464844 C 4.652344 -29.960938 4.148438 -29.394531 3.710938 -28.769531 C 2.011719 -26.410156 1.039062 -23.707031 0.472656 -20.875 C 0.09375 -18.800781 -0.03125 -16.726562 0 -14.621094 L 0 -12.542969 C 0.0625 -11.003906 0.410156 -9.558594 1.007812 -8.144531 C 1.855469 -6.195312 3.207031 -4.683594 5 -3.550781 C 5.3125 -3.394531 5.628906 -3.238281 5.972656 -3.175781 Z M 1.320312 -10.25 C 1.257812 -10.1875 1.070312 -10.25 1.039062 -10.34375 C 0.941406 -10.785156 0.847656 -11.191406 0.816406 -11.632812 C 0.628906 -14.558594 0.660156 -17.480469 1.164062 -20.40625 C 1.539062 -22.730469 2.296875 -24.964844 3.457031 -27.039062 C 4.054688 -28.074219 4.746094 -29.019531 5.628906 -29.835938 C 6.195312 -30.371094 6.855469 -30.71875 7.671875 -30.683594 C 8.707031 -30.683594 9.496094 -30.054688 9.714844 -29.019531 C 9.808594 -28.578125 9.839844 -28.105469 9.777344 -27.636719 C 9.777344 -26.316406 9.402344 -25.058594 8.960938 -23.832031 C 7.984375 -20.875 6.726562 -18.046875 4.9375 -15.46875 C 4.308594 -14.523438 3.710938 -13.550781 3.113281 -12.574219 C 2.671875 -11.882812 2.167969 -11.191406 1.636719 -10.5625 C 1.539062 -10.4375 1.414062 -10.34375 1.320312 -10.25 Z M 1.320312 -10.25 "/></g></g></g><g fill="#000000" fill-opacity="1"><g transform="translate(41.479797, 46.500728)"><g><path d="M 2.042969 -5.40625 C 2.859375 -5 3.617188 -5.0625 4.371094 -5.503906 C 4.714844 -5.722656 5.03125 -5.941406 5.21875 -6.257812 C 5.566406 -6.917969 6.035156 -6.949219 6.664062 -6.695312 C 6.855469 -6.601562 7.105469 -6.570312 7.324219 -6.507812 C 8.207031 -6.289062 9.085938 -6.257812 9.996094 -6.351562 C 12.703125 -6.632812 14.996094 -7.796875 16.820312 -9.808594 C 16.914062 -9.902344 17.007812 -10.03125 17.101562 -10.15625 C 17.167969 -10.25 17.101562 -10.375 17.039062 -10.46875 C 16.914062 -10.59375 16.789062 -10.625 16.632812 -10.5625 C 16.539062 -10.53125 16.441406 -10.4375 16.347656 -10.375 C 16.160156 -10.15625 15.941406 -9.964844 15.71875 -9.746094 C 13.894531 -8.015625 11.726562 -7.136719 8.835938 -7.042969 C 8.238281 -6.980469 7.324219 -7.261719 6.414062 -7.546875 C 6.128906 -7.609375 6.097656 -7.734375 6.164062 -7.984375 L 6.257812 -8.488281 C 6.445312 -9.117188 6.476562 -9.746094 6.414062 -10.40625 C 6.289062 -11.445312 5.785156 -12.261719 4.875 -12.796875 C 4.085938 -13.300781 3.269531 -13.457031 2.421875 -12.671875 C 2.296875 -12.574219 2.199219 -12.449219 2.042969 -12.449219 C 1.445312 -12.511719 1.195312 -12.074219 0.910156 -11.664062 C 0.347656 -10.816406 0.0625 -9.902344 0 -8.898438 C -0.09375 -7.230469 0.566406 -6.128906 2.042969 -5.40625 Z M 5.03125 -8.046875 C 3.992188 -8.644531 3.082031 -9.367188 2.515625 -10.46875 C 2.074219 -11.285156 2.828125 -12.261719 3.425781 -12.417969 C 3.742188 -12.511719 4.054688 -12.417969 4.339844 -12.261719 C 5.15625 -11.851562 5.566406 -11.160156 5.691406 -10.28125 C 5.722656 -10.09375 5.722656 -9.933594 5.722656 -9.777344 C 5.691406 -9.242188 5.597656 -8.742188 5.40625 -8.238281 C 5.34375 -8.015625 5.1875 -7.921875 5.03125 -8.046875 Z M 2.703125 -5.941406 C 1.570312 -6.257812 0.816406 -7.167969 0.753906 -8.332031 C 0.691406 -9.179688 0.847656 -10.0625 1.289062 -10.816406 C 1.320312 -10.878906 1.382812 -10.941406 1.445312 -11.003906 C 1.601562 -10.941406 1.601562 -10.816406 1.636719 -10.722656 C 1.855469 -9.902344 2.328125 -9.242188 2.925781 -8.707031 C 3.457031 -8.207031 4.023438 -7.734375 4.621094 -7.355469 C 4.90625 -7.199219 4.90625 -7.074219 4.714844 -6.824219 C 4.464844 -6.476562 4.179688 -6.226562 3.804688 -6.035156 C 3.457031 -5.878906 3.082031 -5.847656 2.703125 -5.941406 Z M 2.703125 -5.941406 "/></g></g></g><g fill="#000000" fill-opacity="1"><g transform="translate(57.666124, 46.500728)"><g><path d="M 2.515625 7.734375 C 3.363281 7.890625 4.179688 7.734375 4.96875 7.417969 C 6.035156 6.949219 6.886719 6.226562 7.609375 5.3125 C 8.804688 3.773438 9.464844 1.980469 9.746094 0.0625 C 9.964844 -1.351562 10.09375 -2.765625 10.09375 -4.179688 C 10.09375 -4.558594 10.21875 -4.777344 10.53125 -4.9375 C 11.476562 -5.40625 12.386719 -5.941406 13.300781 -6.414062 C 15.53125 -7.609375 17.699219 -8.929688 19.996094 -9.933594 C 20.121094 -9.996094 20.214844 -10.0625 20.308594 -10.125 C 20.40625 -10.21875 20.4375 -10.375 20.375 -10.53125 C 20.308594 -10.65625 20.183594 -10.753906 20.027344 -10.722656 C 19.933594 -10.722656 19.808594 -10.65625 19.710938 -10.625 C 19.210938 -10.375 18.707031 -10.1875 18.203125 -9.902344 L 11.003906 -6.035156 C 10.816406 -5.910156 10.59375 -5.816406 10.375 -5.722656 C 10.21875 -5.628906 10.09375 -5.722656 10.09375 -5.878906 C 10.03125 -6.601562 9.964844 -7.324219 9.933594 -8.046875 C 9.871094 -9.589844 9.714844 -11.128906 9.402344 -12.640625 C 9.304688 -13.078125 9.179688 -13.550781 8.929688 -13.929688 C 8.550781 -14.460938 8.046875 -14.589844 7.484375 -14.273438 C 7.105469 -14.054688 6.792969 -13.738281 6.507812 -13.425781 C 6.289062 -13.203125 6.128906 -12.890625 5.816406 -12.734375 C 5.503906 -13.015625 5.25 -13.394531 4.839844 -13.550781 C 3.804688 -13.894531 2.734375 -13.929688 1.824219 -13.300781 C 0.691406 -12.480469 0.25 -11.320312 0.378906 -9.933594 C 0.472656 -9.210938 1.070312 -8.707031 1.824219 -8.707031 C 2.074219 -8.742188 2.296875 -8.773438 2.515625 -8.835938 C 3.082031 -8.960938 3.585938 -9.273438 4.023438 -9.652344 C 4.808594 -10.28125 5.503906 -10.972656 6.097656 -11.757812 C 6.445312 -12.167969 6.757812 -12.574219 7.105469 -12.953125 C 7.292969 -13.203125 7.546875 -13.425781 7.828125 -13.582031 C 8.015625 -13.707031 8.207031 -13.675781 8.332031 -13.457031 C 8.550781 -13.078125 8.644531 -12.671875 8.742188 -12.230469 C 9.023438 -10.691406 9.148438 -9.117188 9.242188 -7.546875 C 9.273438 -6.917969 9.273438 -6.289062 9.304688 -5.660156 C 9.335938 -5.28125 9.242188 -5.03125 8.898438 -4.875 C 8.773438 -4.839844 8.675781 -4.746094 8.582031 -4.683594 C 7.292969 -3.929688 6.035156 -3.082031 4.808594 -2.199219 C 3.929688 -1.539062 3.082031 -0.816406 2.328125 -0.03125 C 1.601562 0.691406 0.976562 1.507812 0.503906 2.421875 C -0.09375 3.550781 -0.15625 4.746094 0.3125 5.941406 C 0.722656 6.917969 1.414062 7.546875 2.515625 7.734375 Z M 2.011719 -9.496094 C 1.476562 -9.402344 1.132812 -9.683594 1.070312 -10.25 C 1.039062 -10.785156 1.195312 -11.253906 1.445312 -11.726562 C 1.886719 -12.640625 2.609375 -13.078125 3.617188 -13.046875 C 4.179688 -13.046875 4.714844 -12.921875 5.09375 -12.449219 C 5.3125 -12.167969 5.3125 -11.945312 5.0625 -11.664062 C 4.527344 -11.066406 3.960938 -10.46875 3.300781 -10.03125 C 2.925781 -9.746094 2.484375 -9.527344 2.011719 -9.496094 Z M 2.828125 7.011719 C 1.949219 6.949219 1.382812 6.507812 1.039062 5.722656 C 0.660156 4.875 0.660156 4.023438 0.976562 3.175781 C 1.132812 2.734375 1.382812 2.328125 1.636719 1.949219 C 2.265625 1.070312 2.988281 0.28125 3.804688 -0.410156 C 5.3125 -1.730469 6.980469 -2.859375 8.707031 -3.898438 C 8.804688 -3.960938 8.898438 -3.992188 9.023438 -4.054688 C 9.148438 -4.117188 9.273438 -4.023438 9.304688 -3.867188 L 9.304688 -2.859375 C 9.179688 -1.226562 9.054688 0.378906 8.550781 1.886719 C 8.207031 3.050781 7.640625 4.085938 6.886719 5.03125 C 6.257812 5.816406 5.46875 6.382812 4.527344 6.792969 C 3.992188 7.011719 3.425781 7.074219 2.828125 7.011719 Z M 2.828125 7.011719 "/></g></g></g><g fill="#000000" fill-opacity="1"><g transform="translate(77.121147, 46.500728)"><g><path d="M 1.070312 -12.261719 C 1.382812 -12.386719 1.601562 -12.703125 1.601562 -12.984375 C 1.570312 -13.234375 1.445312 -13.425781 1.226562 -13.550781 C 1.101562 -13.613281 0.941406 -13.613281 0.816406 -13.488281 C 0.597656 -13.234375 0.441406 -12.921875 0.535156 -12.542969 C 0.597656 -12.324219 0.878906 -12.167969 1.070312 -12.261719 Z M 4.054688 -4.148438 C 4.558594 -4.148438 5.09375 -4.179688 5.597656 -4.308594 C 6.726562 -4.558594 7.734375 -5.0625 8.644531 -5.722656 C 9.871094 -6.570312 10.941406 -7.609375 11.980469 -8.644531 C 12.355469 -9.023438 12.734375 -9.402344 13.078125 -9.777344 C 13.203125 -9.902344 13.234375 -10.09375 13.109375 -10.25 C 12.984375 -10.375 12.796875 -10.40625 12.640625 -10.28125 C 12.386719 -10.09375 12.136719 -9.871094 11.914062 -9.652344 C 11.097656 -8.773438 10.25 -7.953125 9.335938 -7.167969 C 8.457031 -6.414062 7.515625 -5.753906 6.414062 -5.3125 C 5.375 -4.90625 4.308594 -4.746094 3.175781 -4.96875 C 2.421875 -5.09375 1.886719 -5.46875 1.507812 -6.097656 C 0.910156 -7.074219 0.628906 -8.113281 0.785156 -9.242188 C 0.816406 -9.496094 0.847656 -9.777344 0.847656 -10.03125 C 0.878906 -10.1875 0.785156 -10.3125 0.628906 -10.34375 C 0.503906 -10.40625 0.28125 -10.3125 0.21875 -10.125 C 0.15625 -9.902344 0.0625 -9.683594 0.03125 -9.464844 C -0.09375 -8.269531 0.09375 -7.167969 0.628906 -6.097656 C 1.257812 -4.875 2.230469 -4.179688 3.617188 -4.179688 C 3.742188 -4.148438 3.898438 -4.148438 4.054688 -4.148438 Z M 4.054688 -4.148438 "/></g></g></g><g fill="#000000" fill-opacity="1"><g transform="translate(89.378753, 46.500728)"><g><path d="M 3.773438 -1.824219 C 5.4375 -2.042969 6.980469 -2.640625 8.488281 -3.300781 C 11.035156 -4.496094 13.015625 -6.320312 14.589844 -8.613281 C 14.808594 -8.929688 14.996094 -9.304688 15.183594 -9.652344 C 15.25 -9.777344 15.3125 -9.933594 15.3125 -10.0625 C 15.34375 -10.1875 15.28125 -10.3125 15.183594 -10.375 C 15.058594 -10.4375 14.902344 -10.4375 14.777344 -10.34375 C 14.683594 -10.21875 14.589844 -10.0625 14.492188 -9.902344 C 14.273438 -9.558594 14.085938 -9.148438 13.832031 -8.804688 C 11.664062 -5.691406 8.644531 -3.804688 5.03125 -2.796875 C 4.683594 -2.703125 4.339844 -2.640625 3.992188 -2.609375 C 3.742188 -2.578125 3.488281 -2.484375 3.238281 -2.640625 C 3.207031 -2.765625 3.269531 -2.859375 3.363281 -2.957031 C 3.742188 -3.457031 3.835938 -4.054688 3.804688 -4.683594 C 3.773438 -5.660156 3.488281 -6.570312 3.019531 -7.417969 C 2.734375 -7.953125 2.390625 -8.457031 2.042969 -8.960938 C 1.667969 -9.558594 1.320312 -10.1875 1.132812 -10.910156 C 1.007812 -11.445312 1.101562 -11.882812 1.382812 -12.324219 C 1.855469 -13.046875 2.578125 -13.300781 3.425781 -13.203125 C 3.992188 -13.140625 4.527344 -12.921875 5.03125 -12.609375 C 5.753906 -12.199219 6.097656 -11.570312 6.164062 -10.753906 L 6.164062 -10.34375 C 6.195312 -10.1875 6.289062 -10.0625 6.445312 -10.0625 C 6.601562 -10.03125 6.726562 -10.09375 6.792969 -10.25 C 6.855469 -10.375 6.886719 -10.53125 6.886719 -10.65625 C 6.917969 -11.507812 6.632812 -12.261719 5.972656 -12.828125 C 5.0625 -13.613281 3.992188 -13.992188 2.765625 -13.929688 C 1.132812 -13.832031 -0.0625 -12.074219 0.441406 -10.5625 C 0.691406 -9.839844 1.007812 -9.179688 1.445312 -8.550781 C 1.824219 -8.015625 2.136719 -7.484375 2.453125 -6.917969 C 2.828125 -6.195312 3.019531 -5.40625 3.082031 -4.589844 C 3.144531 -3.617188 2.609375 -2.988281 1.636719 -2.890625 C 1.382812 -2.859375 1.101562 -2.925781 0.847656 -2.925781 L 0.25 -2.925781 C 0 -2.890625 -0.09375 -2.546875 0.0625 -2.359375 C 0.25 -2.136719 0.503906 -2.042969 0.753906 -2.011719 C 1.761719 -1.855469 2.765625 -1.699219 3.773438 -1.824219 Z M 3.773438 -1.824219 "/></g></g></g><g fill="#000000" fill-opacity="1"><g transform="translate(103.742151, 46.500728)"><g><path d="M 17.101562 -10.28125 C 16.976562 -10.375 16.820312 -10.40625 16.695312 -10.34375 C 16.601562 -10.28125 16.507812 -10.21875 16.441406 -10.125 C 16.222656 -9.871094 16.035156 -9.621094 15.847656 -9.367188 C 14.652344 -7.765625 13.332031 -6.320312 11.851562 -5 C 11.160156 -4.371094 10.40625 -3.835938 9.589844 -3.394531 C 9.242188 -3.238281 8.898438 -3.050781 8.519531 -3.050781 C 6.507812 -2.957031 4.746094 -3.488281 3.425781 -5.125 C 2.828125 -5.847656 2.390625 -6.664062 2.011719 -7.515625 C 1.289062 -8.929688 1.195312 -9.621094 1.351562 -10.59375 C 1.351562 -10.46875 2.296875 -15.183594 2.734375 -19.117188 L 14.148438 -19.117188 C 14.621094 -19.117188 14.652344 -19.746094 14.148438 -19.746094 L 2.796875 -19.746094 C 2.890625 -20.78125 2.957031 -21.757812 2.925781 -22.542969 C 2.890625 -22.824219 2.796875 -23.109375 2.609375 -23.328125 C 2.265625 -23.769531 1.730469 -23.800781 1.320312 -23.453125 C 1.070312 -23.234375 0.910156 -22.953125 0.785156 -22.667969 C 0.441406 -21.882812 0.21875 -21.066406 0.125 -20.246094 C 0.125 -20.089844 0.09375 -19.902344 0.09375 -19.746094 L -7.011719 -19.746094 C -7.453125 -19.746094 -7.453125 -19.117188 -7.011719 -19.117188 L 0.03125 -19.117188 C -0.28125 -14.523438 -0.566406 -9.996094 2.453125 -5.21875 C 3.488281 -3.648438 4.9375 -2.796875 6.695312 -2.421875 C 8.015625 -2.136719 9.304688 -2.296875 10.46875 -3.050781 C 11.191406 -3.519531 11.882812 -4.054688 12.542969 -4.621094 C 14.179688 -6.128906 15.59375 -7.796875 16.914062 -9.589844 C 17.007812 -9.683594 17.070312 -9.808594 17.136719 -9.933594 C 17.199219 -10.0625 17.167969 -10.1875 17.101562 -10.28125 Z M 0.941406 -20.90625 C 1.070312 -21.535156 1.257812 -22.132812 1.601562 -22.699219 C 1.667969 -22.824219 1.792969 -22.917969 1.949219 -22.886719 C 2.105469 -22.855469 2.167969 -22.699219 2.167969 -22.574219 C 2.265625 -21.882812 2.265625 -20.875 2.167969 -19.746094 L 0.785156 -19.746094 C 0.816406 -20.121094 0.878906 -20.53125 0.941406 -20.90625 Z M 0.628906 -17.984375 C 0.660156 -18.328125 0.691406 -18.707031 0.722656 -19.117188 L 2.105469 -19.117188 C 1.824219 -16.316406 1.164062 -12.859375 0.816406 -10.910156 C 0.378906 -13.738281 0.628906 -17.636719 0.628906 -17.984375 Z M 0.628906 -17.984375 "/></g></g></g><g fill="#000000" fill-opacity="1"><g transform="translate(119.959916, 46.500728)"><g><path d="M 11.320312 -3.929688 C 12.890625 -3.519531 14.429688 -3.742188 15.910156 -4.402344 C 17.007812 -4.90625 18.046875 -5.535156 19.019531 -6.289062 C 20.375 -7.324219 21.503906 -8.550781 22.667969 -9.808594 L 22.792969 -9.996094 C 22.886719 -10.15625 22.855469 -10.375 22.730469 -10.46875 C 22.605469 -10.5625 22.449219 -10.5625 22.324219 -10.46875 C 22.195312 -10.375 22.101562 -10.28125 22.007812 -10.1875 C 21.628906 -9.777344 21.253906 -9.367188 20.875 -8.992188 C 19.492188 -7.546875 17.984375 -6.289062 16.191406 -5.375 C 15.34375 -4.9375 14.429688 -4.652344 13.488281 -4.496094 C 10.722656 -4.148438 8.644531 -6.066406 8.082031 -8.082031 C 7.859375 -8.960938 7.859375 -9.839844 7.953125 -10.753906 C 7.984375 -11.253906 8.046875 -11.726562 8.082031 -12.230469 C 8.113281 -12.417969 8.113281 -12.640625 8.082031 -12.828125 C 8.015625 -13.300781 7.671875 -13.488281 7.261719 -13.234375 C 7.074219 -13.140625 6.886719 -12.984375 6.632812 -12.796875 L 6.226562 -13.363281 C 5.878906 -13.832031 5.375 -14.117188 4.777344 -14.210938 C 3.929688 -14.335938 3.144531 -14.179688 2.453125 -13.675781 C 2.042969 -13.394531 1.699219 -13.046875 1.414062 -12.640625 C 0.753906 -11.726562 0.3125 -10.722656 0.125 -9.621094 C 0 -9.054688 -0.03125 -8.457031 0.09375 -7.890625 C 0.347656 -6.507812 1.539062 -6.035156 2.703125 -6.824219 C 2.859375 -6.917969 3.019531 -7.042969 3.175781 -7.199219 L 4.117188 -8.207031 C 4.90625 -9.117188 5.628906 -10.0625 6.289062 -11.035156 C 6.539062 -11.382812 6.792969 -11.695312 7.042969 -12.011719 C 7.074219 -12.042969 7.136719 -12.042969 7.199219 -12.042969 C 7.324219 -12.074219 7.324219 -11.945312 7.324219 -11.882812 C 7.230469 -11.097656 7.167969 -10.3125 7.167969 -9.527344 C 7.167969 -8.773438 7.292969 -8.015625 7.578125 -7.324219 C 8.300781 -5.597656 9.496094 -4.433594 11.320312 -3.929688 Z M 2.136719 -7.324219 C 1.601562 -7.042969 1.195312 -7.167969 0.910156 -7.703125 C 0.785156 -8.015625 0.722656 -8.332031 0.722656 -8.644531 C 0.847656 -10.1875 1.351562 -11.570312 2.453125 -12.703125 C 3.113281 -13.394531 3.929688 -13.707031 4.90625 -13.394531 C 5.503906 -13.203125 5.785156 -12.796875 5.972656 -12.230469 C 6.003906 -12.105469 6.003906 -11.945312 5.910156 -11.820312 L 5.722656 -11.539062 C 4.9375 -10.375 4.085938 -9.304688 3.175781 -8.238281 C 2.859375 -7.890625 2.546875 -7.578125 2.136719 -7.324219 Z M 2.136719 -7.324219 "/></g></g></g><g fill="#000000" fill-opacity="1"><g transform="translate(23.420219, 60.806523)"><g><path d="M 4.402344 -3.277344 L 3.578125 -0.574219 L 2.496094 -3.238281 L 2.476562 -3.238281 L 2.289062 -2.769531 L 1.390625 -0.5625 L 0.558594 -3.277344 L 0.171875 -3.269531 L 1.195312 0.0742188 L 1.226562 0.0742188 L 2.328125 -2.652344 L 3.4375 0.0742188 L 3.46875 0.0742188 L 4.5 -3.277344 Z M 4.402344 -3.277344 "/></g></g></g><g fill="#000000" fill-opacity="1"><g transform="translate(30.964027, 60.806523)"><g><path d="M 2.15625 -3.277344 L 2.15625 -1.75 L 0.621094 -1.75 L 0.621094 -3.277344 L 0.25 -3.277344 L 0.25 0.00390625 L 0.621094 0.00390625 L 0.621094 -1.667969 L 2.15625 -1.667969 L 2.15625 0.00390625 L 2.535156 0.00390625 L 2.535156 -3.277344 Z M 2.15625 -3.277344 "/></g></g></g><g fill="#000000" fill-opacity="1"><g transform="translate(36.627104, 60.806523)"><g><path d="M 2.730469 0.00390625 L 3.132812 0.00390625 L 1.699219 -3.339844 L 1.671875 -3.339844 L 0.183594 0.00390625 L 0.296875 0.00390625 L 0.886719 -1.3125 L 2.164062 -1.3125 Z M 0.925781 -1.398438 L 1.535156 -2.773438 L 2.125 -1.398438 Z M 0.925781 -1.398438 "/></g></g></g><g fill="#000000" fill-opacity="1"><g transform="translate(42.807381, 60.806523)"><g><path d="M 2.566406 -3.277344 L 0.171875 -3.277344 L 0.171875 -3.191406 L 1.179688 -3.191406 L 1.179688 0.00390625 L 1.558594 0.00390625 L 1.558594 -3.191406 L 2.566406 -3.191406 Z M 2.566406 -3.277344 "/></g></g></g><g fill="#000000" fill-opacity="1"><g transform="translate(48.407768, 60.806523)"><g><path d="M 0.128906 -0.242188 L 0.128906 -0.121094 C 0.128906 -0.121094 0.449219 0.136719 1.011719 0.136719 C 1.578125 0.136719 2.117188 -0.257812 2.117188 -0.835938 C 2.117188 -2.007812 0.4375 -1.660156 0.4375 -2.613281 C 0.4375 -2.984375 0.695312 -3.285156 1.144531 -3.285156 C 1.589844 -3.285156 1.875 -3.070312 1.875 -3.070312 L 1.871094 -3.179688 C 1.871094 -3.179688 1.558594 -3.375 1.140625 -3.375 C 0.726562 -3.375 0.144531 -3.125 0.144531 -2.472656 C 0.144531 -1.300781 1.816406 -1.738281 1.816406 -0.707031 C 1.816406 -0.199219 1.429688 0.0507812 1.011719 0.0507812 C 0.5625 0.0507812 0.3125 -0.0976562 0.128906 -0.242188 Z M 0.128906 -0.242188 "/></g></g></g><g fill="#000000" fill-opacity="1"><g transform="translate(53.590217, 60.806523)"><g/></g></g><g fill="#000000" fill-opacity="1"><g transform="translate(57.753931, 60.806523)"><g><path d="M 2.542969 -3.277344 L 1.550781 -1.609375 L 0.59375 -3.277344 L 0.167969 -3.277344 L 1.222656 -1.425781 L 1.222656 0.00390625 L 1.597656 0.00390625 L 1.597656 -1.527344 L 2.648438 -3.277344 Z M 2.542969 -3.277344 "/></g></g></g><g fill="#000000" fill-opacity="1"><g transform="translate(63.43268, 60.806523)"><g><path d="M 2.007812 -3.339844 C 1.066406 -3.339844 0.207031 -2.835938 0.207031 -1.625 C 0.207031 -0.230469 1.347656 0.0976562 2.007812 0.0976562 C 2.660156 0.0976562 3.804688 -0.230469 3.804688 -1.625 C 3.804688 -2.835938 2.941406 -3.339844 2.007812 -3.339844 Z M 2.007812 0.0117188 C 1.414062 0.0117188 0.589844 -0.25 0.589844 -1.625 C 0.589844 -2.976562 1.5 -3.253906 2.007812 -3.253906 C 2.511719 -3.253906 3.421875 -2.976562 3.421875 -1.625 C 3.421875 -0.25 2.589844 0.0117188 2.007812 0.0117188 Z M 2.007812 0.0117188 "/></g></g></g><g fill="#000000" fill-opacity="1"><g transform="translate(70.333911, 60.806523)"><g><path d="M 2.636719 -3.277344 L 2.636719 -1.253906 C 2.636719 -0.257812 2.132812 -0.0351562 1.535156 -0.0351562 C 0.652344 -0.0351562 0.605469 -0.835938 0.605469 -1.207031 L 0.605469 -3.277344 L 0.234375 -3.277344 L 0.234375 -1.207031 C 0.234375 -0.140625 0.839844 0.0976562 1.457031 0.0976562 C 2.292969 0.0976562 2.726562 -0.34375 2.726562 -1.207031 L 2.726562 -3.277344 Z M 2.636719 -3.277344 "/></g></g></g><g fill="#000000" fill-opacity="1"><g transform="translate(76.174615, 60.806523)"><g><path d="M 2.550781 0.00390625 L 1.320312 -1.542969 C 1.707031 -1.59375 2.292969 -1.78125 2.292969 -2.457031 C 2.292969 -3.175781 1.511719 -3.277344 1.242188 -3.277344 C 0.988281 -3.277344 0.25 -3.277344 0.25 -3.277344 L 0.25 0.00390625 L 0.621094 0.00390625 L 0.621094 -1.519531 L 0.863281 -1.519531 L 2.074219 0.00390625 Z M 0.621094 -3.191406 L 1.042969 -3.191406 C 1.578125 -3.191406 1.894531 -2.972656 1.894531 -2.398438 C 1.894531 -1.8125 1.519531 -1.605469 0.910156 -1.605469 L 0.621094 -1.605469 Z M 0.621094 -3.191406 "/></g></g></g><g fill="#000000" fill-opacity="1"><g transform="translate(81.759327, 60.806523)"><g/></g></g><g fill="#000000" fill-opacity="1"><g transform="translate(85.923037, 60.806523)"><g><path d="M 0.246094 -3.277344 L 0.246094 0.0820312 C 0.246094 0.601562 0.171875 0.929688 -0.34375 0.929688 L -0.34375 1.011719 C 0.273438 1.011719 0.621094 0.585938 0.621094 0.0820312 L 0.621094 -3.277344 Z M 0.246094 -3.277344 "/></g></g></g><g fill="#000000" fill-opacity="1"><g transform="translate(89.674035, 60.806523)"><g><path d="M 2.007812 -3.339844 C 1.066406 -3.339844 0.207031 -2.835938 0.207031 -1.625 C 0.207031 -0.230469 1.347656 0.0976562 2.007812 0.0976562 C 2.660156 0.0976562 3.804688 -0.230469 3.804688 -1.625 C 3.804688 -2.835938 2.941406 -3.339844 2.007812 -3.339844 Z M 2.007812 0.0117188 C 1.414062 0.0117188 0.589844 -0.25 0.589844 -1.625 C 0.589844 -2.976562 1.5 -3.253906 2.007812 -3.253906 C 2.511719 -3.253906 3.421875 -2.976562 3.421875 -1.625 C 3.421875 -0.25 2.589844 0.0117188 2.007812 0.0117188 Z M 2.007812 0.0117188 "/></g></g></g><g fill="#000000" fill-opacity="1"><g transform="translate(96.575262, 60.806523)"><g><path d="M 2.636719 -3.277344 L 2.636719 -1.253906 C 2.636719 -0.257812 2.132812 -0.0351562 1.535156 -0.0351562 C 0.652344 -0.0351562 0.605469 -0.835938 0.605469 -1.207031 L 0.605469 -3.277344 L 0.234375 -3.277344 L 0.234375 -1.207031 C 0.234375 -0.140625 0.839844 0.0976562 1.457031 0.0976562 C 2.292969 0.0976562 2.726562 -0.34375 2.726562 -1.207031 L 2.726562 -3.277344 Z M 2.636719 -3.277344 "/></g></g></g><g fill="#000000" fill-opacity="1"><g transform="translate(102.415963, 60.806523)"><g><path d="M 2.550781 0.00390625 L 1.320312 -1.542969 C 1.707031 -1.59375 2.292969 -1.78125 2.292969 -2.457031 C 2.292969 -3.175781 1.511719 -3.277344 1.242188 -3.277344 C 0.988281 -3.277344 0.25 -3.277344 0.25 -3.277344 L 0.25 0.00390625 L 0.621094 0.00390625 L 0.621094 -1.519531 L 0.863281 -1.519531 L 2.074219 0.00390625 Z M 0.621094 -3.191406 L 1.042969 -3.191406 C 1.578125 -3.191406 1.894531 -2.972656 1.894531 -2.398438 C 1.894531 -1.8125 1.519531 -1.605469 0.910156 -1.605469 L 0.621094 -1.605469 Z M 0.621094 -3.191406 "/></g></g></g><g fill="#000000" fill-opacity="1"><g transform="translate(108.000672, 60.806523)"><g><path d="M 2.914062 -3.277344 L 2.832031 -3.277344 L 2.832031 -0.496094 L 0.261719 -3.339844 L 0.25 -3.339844 L 0.25 0.00390625 L 0.335938 0.00390625 L 0.335938 -2.742188 L 2.898438 0.0976562 L 2.914062 0.0976562 Z M 2.914062 -3.277344 "/></g></g></g><g fill="#000000" fill-opacity="1"><g transform="translate(114.05034, 60.806523)"><g><path d="M 1.910156 -3.191406 L 1.910156 -3.277344 L 0.25 -3.277344 L 0.25 0.00390625 L 1.910156 0.00390625 L 1.910156 -0.078125 L 0.621094 -0.078125 L 0.621094 -1.667969 L 1.769531 -1.667969 L 1.769531 -1.75 L 0.621094 -1.75 L 0.621094 -3.191406 Z M 1.910156 -3.191406 "/></g></g></g><g fill="#000000" fill-opacity="1"><g transform="translate(119.04471, 60.806523)"><g><path d="M 2.542969 -3.277344 L 1.550781 -1.609375 L 0.59375 -3.277344 L 0.167969 -3.277344 L 1.222656 -1.425781 L 1.222656 0.00390625 L 1.597656 0.00390625 L 1.597656 -1.527344 L 2.648438 -3.277344 Z M 2.542969 -3.277344 "/></g></g></g><g fill="#000000" fill-opacity="1"><g transform="translate(124.723457, 60.806523)"><g><path d="M 0.175781 -3.054688 C 0.3125 -3.164062 0.523438 -3.253906 0.824219 -3.253906 C 1.195312 -3.253906 1.414062 -2.945312 1.414062 -2.601562 C 1.414062 -1.933594 0.339844 -1.894531 0.339844 -1.238281 C 0.339844 -0.996094 0.496094 -0.714844 0.929688 -0.714844 C 1.144531 -0.714844 1.265625 -0.792969 1.265625 -0.792969 L 1.265625 -0.878906 C 1.265625 -0.878906 1.164062 -0.800781 0.933594 -0.800781 C 0.664062 -0.800781 0.558594 -0.980469 0.558594 -1.160156 C 0.558594 -1.675781 1.660156 -1.699219 1.660156 -2.535156 C 1.660156 -2.992188 1.390625 -3.339844 0.835938 -3.339844 C 0.421875 -3.339844 0.1875 -3.148438 0.175781 -3.148438 Z M 0.800781 0.0898438 L 1.039062 -0.152344 L 0.800781 -0.390625 L 0.558594 -0.152344 Z M 0.800781 0.0898438 "/></g></g></g></svg>